<svg xmlns="http://www.w3.org/2000/svg" enable-background="new 0 0 24 24" viewBox="0 0 24 24" id="the-movie-database"><polygon points="5.132 21.899 5.146 21.885 5.121 21.885"></polygon><path fill="#30CC74" d="M23,3.531C23,1.425,21.579,0,19.476,0H4.524C2.422,0,1,1.424,1,3.531V24l1.805-2.101V3.531c0.001-0.949,0.769-1.719,1.716-1.719h14.951c0.947,0.002,1.715,0.769,1.715,1.719v14.837c0,0.948-0.768,1.718-1.715,1.719H6.93l-1.792,1.798l14.338,0.013c2.103,0,3.524-1.424,3.524-3.53V3.531L23,3.531z"></path><path fill="#2AB265" d="M12,20.087H6.93l-1.792,1.798L12,21.891V20.087L12,20.087z M12,0H4.524C2.422,0,1,1.424,1,3.531V24l1.805-2.101V3.531c0.001-0.949,0.769-1.719,1.716-1.719H12V0L12,0z"></path><polygon fill="#30CC74" points="7.047 5.83 8.463 5.83 8.463 10.389 9.599 10.389 9.599 5.83 11.015 5.83 11.015 4.699 7.047 4.699 7.047 5.83"></polygon><path fill="#30CC74" d="M8.794,11.466H7.1v5.698h1.694C12.579,17.164,12.579,11.466,8.794,11.466L8.794,11.466z M8.794,16.023v0.002h-0.55v-3.42h0.55C11.004,12.605,11.004,16.023,8.794,16.023L8.794,16.023z"></path><polygon fill="#2AB265" points="9.031 4.699 7.047 4.699 7.047 5.83 8.463 5.83 8.463 10.389 9.031 10.389 9.031 4.699"></polygon><path fill="#2AB265" d="M8.794,11.466H7.1v5.698h1.694c0.081,0,0.16-0.003,0.237-0.008V16.01c-0.076,0.009-0.155,0.014-0.237,0.014v0.002h-0.55v-3.42h0.55c0.082,0,0.161,0.005,0.237,0.014v-1.146C8.954,11.469,8.875,11.466,8.794,11.466L8.794,11.466z"></path><polygon fill="#30CC74" points="14.059 7.201 14.058 7.201 12.092 4.699 11.726 4.699 11.726 10.484 12.88 10.484 12.88 7.304 14.059 8.835 15.24 7.304 15.232 10.484 16.386 10.484 16.386 4.699 16.027 4.699 14.059 7.201"></polygon><path fill="#30CC74" d="M16.5,13.191c0.023-1.004-0.604-1.729-1.613-1.729h-2.251v5.706h2.251c0.928-0.008,1.676-0.763,1.677-1.694v-0.029c0-0.465-0.231-0.878-0.583-1.127l-0.005-0.002l-0.001-0.001C16.332,14.069,16.484,13.626,16.5,13.191L16.5,13.191z M15.312,13.174l0.002,0.041c0,0.292-0.235,0.531-0.526,0.533h-1.011v-1.147h1.01C15.113,12.601,15.312,12.855,15.312,13.174L15.312,13.174z M15.358,15.462c0,0.314-0.253,0.565-0.564,0.565h-0.001h-0.007h-1.01v-1.139h1.025c0.308,0,0.558,0.25,0.558,0.56V15.462L15.358,15.462z"></path><polygon fill="#2AB265" points="12.092 4.699 11.726 4.699 11.726 10.484 12.88 10.484 12.88 7.304 14.059 8.835 14.437 8.345 14.437 6.721 14.059 7.201 14.058 7.201 12.092 4.699"></polygon><polygon fill="#2AB265" points="14.437 11.462 12.636 11.462 12.636 17.168 14.437 17.168 14.437 16.027 13.776 16.027 13.776 14.888 14.437 14.888 14.437 13.748 13.776 13.748 13.776 12.601 14.437 12.601 14.437 11.462"></polygon></svg>